<?xml version="1.0" standalone="no"?>
<!DOCTYPE svg PUBLIC "-//W3C//DTD SVG 20010904//EN"
 "http://www.w3.org/TR/2001/REC-SVG-20010904/DTD/svg10.dtd">
<svg version="1.0" xmlns="http://www.w3.org/2000/svg"
 width="2096.000000pt" height="2096.000000pt" viewBox="0 0 2096.000000 2096.000000"
 preserveAspectRatio="xMidYMid meet">
<metadata>
Created by potrace 1.11, written by Peter Selinger 2001-2013
</metadata>
<g transform="translate(0.000000,2096.000000) scale(0.100000,-0.100000)"
fill="#000000" stroke="none">
<path d="M12855 14873 c-492 -44 -880 -207 -1160 -488 -156 -156 -252 -316
-313 -521 -45 -151 -56 -239 -56 -444 0 -198 9 -274 49 -416 47 -162 111 -277
239 -426 232 -271 498 -406 1299 -662 383 -123 533 -195 663 -318 105 -100
137 -168 142 -298 10 -238 -106 -390 -348 -456 -82 -22 -299 -25 -380 -5 -96
23 -197 78 -258 139 -86 86 -134 194 -168 380 l-4 22 -625 0 -625 0 0 -50 c0
-85 30 -266 61 -370 147 -497 561 -861 1151 -1014 325 -84 672 -105 1018 -60
691 89 1212 510 1370 1107 84 321 56 701 -73 952 -69 136 -245 335 -391 442
-177 131 -463 258 -991 443 -636 222 -804 324 -866 524 -28 89 -23 221 12 310
32 81 103 157 190 200 94 47 161 59 294 53 176 -8 308 -65 409 -178 59 -65 92
-135 114 -239 l19 -85 628 -3 c346 -1 632 1 636 5 3 5 2 49 -2 98 -33 333
-155 614 -362 832 -343 361 -829 538 -1461 531 -94 -1 -189 -3 -211 -5z"/>
<path d="M647 14804 c-4 -4 -7 -443 -7 -976 l0 -968 -320 0 -320 0 0 -495 0
-495 320 0 320 0 2 -977 3 -978 1030 0 c1059 0 1089 1 1330 41 558 92 1077
371 1409 756 290 335 465 719 547 1198 27 160 37 547 20 737 -70 751 -437
1379 -1031 1766 -236 153 -528 270 -830 333 -281 58 -258 57 -1405 61 -583 2
-1064 1 -1068 -3z m1951 -1025 c678 -74 1089 -477 1178 -1153 22 -166 15 -476
-15 -632 -52 -278 -163 -497 -340 -675 -171 -171 -369 -274 -651 -336 -111
-25 -130 -26 -527 -30 l-413 -5 0 461 0 461 323 2 322 3 0 490 0 490 -322 3
-323 2 0 465 0 465 335 0 c185 0 379 -5 433 -11z"/>
<path d="M6682 12363 l3 -2448 1483 -3 1482 -2 0 480 0 480 -895 0 -895 0 0
535 0 535 790 0 790 0 0 460 0 460 -787 2 -788 3 -3 492 -2 493 892 2 893 3 3
478 2 477 -1485 0 -1485 0 2 -2447z"/>
<path d="M16715 14798 c-3 -7 -4 -1109 -3 -2448 l3 -2435 590 0 590 0 5 1072
5 1073 787 -1048 c434 -576 798 -1059 810 -1075 l23 -27 717 2 718 3 -970
1248 -971 1247 408 523 c350 449 1348 1728 1435 1840 l30 37 -694 0 -693 0
-800 -1067 -800 -1066 -3 1066 -2 1067 -590 0 c-463 0 -592 -3 -595 -12z"/>
<path d="M19590 7774 c-206 -44 -356 -194 -379 -379 -25 -212 49 -360 222
-445 45 -22 161 -62 257 -90 270 -78 351 -124 387 -218 22 -57 22 -153 0 -203
-45 -106 -139 -160 -288 -167 -113 -5 -183 11 -247 58 -47 34 -98 115 -107
172 l-7 38 -115 0 -116 0 6 -61 c16 -181 188 -342 411 -384 98 -19 211 -19
300 0 268 57 438 287 397 535 -23 140 -90 232 -218 298 -74 38 -133 58 -373
132 -171 52 -239 98 -274 182 -32 75 -14 199 36 258 97 115 327 134 466 38 47
-32 97 -102 107 -149 l7 -29 119 0 c134 0 128 -4 103 81 -38 127 -116 221
-233 283 -118 62 -310 83 -461 50z"/>
<path d="M1040 6936 l0 -836 110 0 110 0 0 344 0 343 228 6 c256 5 343 21 440
80 243 146 294 511 102 729 -52 60 -117 100 -215 134 l-80 28 -347 4 -348 4 0
-836z m696 630 c68 -21 136 -82 163 -147 18 -40 22 -70 22 -139 0 -141 -46
-221 -156 -272 -47 -21 -65 -23 -277 -26 l-228 -3 0 306 0 307 213 -5 c158 -3
225 -8 263 -21z"/>
<path d="M7150 6935 l0 -835 400 0 401 0 -3 88 -3 87 -287 3 -288 2 0 745 0
745 -110 0 -110 0 0 -835z"/>
<path d="M12907 7763 c-11 -11 -8 -1060 3 -1153 28 -224 129 -377 303 -461
323 -154 724 -45 862 234 71 144 68 117 72 785 l4 602 -110 0 -111 0 0 -567
c0 -604 -4 -652 -50 -742 -28 -57 -95 -119 -155 -147 -74 -34 -186 -49 -273
-35 -159 25 -251 97 -304 238 -22 57 -23 68 -26 656 l-3 597 -103 0 c-56 0
-106 -3 -109 -7z"/>
</g>
</svg>
